<?xml version="1.0" encoding="utf-8"?>
<!-- Generator: Adobe Illustrator 16.0.0, SVG Export Plug-In . SVG Version: 6.00 Build 0)  -->
<!DOCTYPE svg PUBLIC "-//W3C//DTD SVG 1.1//EN" "http://www.w3.org/Graphics/SVG/1.1/DTD/svg11.dtd">
<svg version="1.1" id="Layer_1" xmlns="http://www.w3.org/2000/svg" xmlns:xlink="http://www.w3.org/1999/xlink" x="0px" y="0px"
	 width="708.66px" height="708.66px" viewBox="0 0 708.66 708.66" enable-background="new 0 0 708.66 708.66" xml:space="preserve">
<path fill="#EF4237" d="M347.547,246.859c0,5.13,0.353,10.983,2.406,21.34c-13.622-5.599-18.567-9.517-24.911-19.313l-0.092,12.035
	l6.643,13.89l9.523,12.74l-21.396-2.969l-7.364-6.587l6.156,14.087l11.383,11.383l10.232,6.1l29.065,5.071l16.696-8.04l11.131-10.76
	l8.905-15.467l-14.55,7.048l-12.783-0.734c16.702-14.461,16.696-24.078,16.696-36.115l-7.544,7.544l-18.386,10.178
	c0,0,2.802-15.377,2.802-25.266c0-9.89-4.328-20.407-15.117-32.017C360.122,218.564,347.547,236.223,347.547,246.859z"/>
<path fill="#EF4237" d="M0.027,354.662c7.969,7.968,346.358,346.366,354.328,354.333c7.968-7.968,346.365-346.365,354.333-354.333
	C700.72,346.691,362.323,8.302,354.355,0.334C346.386,8.302,7.996,346.691,0.027,354.662z M354.355,669.213L39.812,354.662
	L354.355,40.117l314.552,314.545L354.355,669.213z"/>
<path fill="#EF4237" d="M53.805,354.662c6.757,6.76,293.793,293.798,300.55,300.557c6.76-6.759,293.799-293.797,300.559-300.557
	c-6.76-6.76-293.799-293.793-300.559-300.554C347.598,60.869,60.562,347.902,53.805,354.662z M378.475,614.241h-43.515
	c0.115-4.553,1.099-8.711,2.951-12.476c1.786-4.231,7.08-11.443,13.915-15.89c5.969-3.88,11.424-9.152,11.424-14.043
	c0-3.098-2.014-7.837-6.576-7.837c-4.563,0-6.532,4.82-6.532,12.786h-14.472c0.205-9.233,1.185-12.509,2.938-15.84
	c3.332-6.342,9.25-10.608,17.757-10.608c6.723,0,12.074,1.866,16.047,5.596c3.977,3.732,5.964,8.667,5.964,14.81
	c0,4.711-1.403,8.896-4.207,12.552c-1.844,2.429-4.866,5.139-9.075,8.126c0,0-9.562,6.876-10.795,7.879h24.178V614.241z
	 M429.42,346.911H286.008v-20.009H429.42V346.911z M380.146,167.385L382.431,180l-1.554,10.695l8.136-4.296l4.845-15.632
	l1.645-25.687l11.546,22.8l1.709,18.061v17.095l-4.387,10.879l6.854-4.39l6.399-8.409l8.408-14.352l5.486,15.174l2.375,16.456
	l-8.317,24.197l-5.668,7.339l8.501-0.914l8.775-5.942l4.754-35.468l0.549,21.756l-2.589,34.917l-6.279,19.93l-10.878,14.9
	l-11.331,7.705l-13.531,7.104l-29.159,2.468l-21.481-1.005l-23.31-1.736l-20.477-6.125l-17.264-11.18l-8.411-13.57l-4.921-20.554
	l-8.8-35.413l-1.277-8.234l13.728,15.156l12.048,11.086l10.238,1.098l-6.731-8.77l-3.57-10.873l-2.539-16.347l2.38-13.174
	l-2.064-19.602l11.347,10.159l7.539,11.824l6.525,4.366l-2.833-7.679v-10.878l1.829-13.986l2.193-12.981l-2.477-13.202l11.343,5.798
	l4.663,4.479l4.387,10.697l1.646,9.141l4.845,9.78l5.21-11.974l3.381-26.51l-0.274-20.477l2.012-10.877l6.672-17.644l5.937,26.699
	L380.146,167.385z"/>
<path fill="#010101" d="M347.604,114.823l-2.012,10.877l0.274,20.477l-3.381,26.51l-5.21,11.974l-4.845-9.78l-1.646-9.141
	l-4.387-10.697l-4.663-4.479l-11.343-5.798l2.477,13.202l-2.193,12.981l-1.829,13.986v10.878l2.833,7.679l-6.525-4.366
	l-7.539-11.824l-11.347-10.159l2.064,19.602l-2.38,13.174l2.539,16.347l3.57,10.873l6.731,8.77l-10.238-1.098l-12.048-11.086
	l-13.728-15.156l1.277,8.234l8.8,35.413l4.921,20.554l8.411,13.57l17.264,11.18l20.477,6.125l23.31,1.736l21.481,1.005l29.159-2.468
	l13.531-7.104l11.331-7.705l10.878-14.9l6.279-19.93l2.589-34.917l-0.549-21.756l-4.754,35.468l-8.775,5.942l-8.501,0.914
	l5.668-7.339l8.317-24.197l-2.375-16.456l-5.486-15.174l-8.408,14.352l-6.399,8.409l-6.854,4.39l4.387-10.879V185.94l-1.709-18.061
	l-11.546-22.8l-1.645,25.687l-4.845,15.632l-8.136,4.296L382.431,180l-2.284-12.615l-19.934-43.506l-5.937-26.699L347.604,114.823z
	 M372.159,243.025c0,9.889-2.802,25.266-2.802,25.266l18.386-10.178l7.544-7.544c0,12.037,0.006,21.654-16.696,36.115l12.783,0.734
	l14.55-7.048l-8.905,15.467l-11.131,10.76l-16.696,8.04l-29.065-5.071l-10.232-6.1l-11.383-11.383l-6.156-14.087l7.364,6.587
	l21.396,2.969l-9.523-12.74l-6.643-13.89l0.092-12.035c6.344,9.795,11.289,13.713,24.911,19.313
	c-2.053-10.357-2.406-16.209-2.406-21.34c0-10.636,12.575-28.295,9.495-35.851C367.831,222.618,372.159,233.135,372.159,243.025z"/>
<rect x="286.008" y="326.902" fill="#010101" width="143.412" height="20.009"/>
<path fill="#010101" d="M365.092,591.417c4.209-2.987,7.231-5.697,9.075-8.126c2.804-3.656,4.207-7.841,4.207-12.552
	c0-6.143-1.987-11.077-5.964-14.81c-3.973-3.729-9.324-5.596-16.047-5.596c-8.507,0-14.426,4.267-17.757,10.608
	c-1.753,3.331-2.732,6.606-2.938,15.84h14.472c0-7.966,1.969-12.786,6.532-12.786c4.563,0,6.576,4.739,6.576,7.837
	c0,4.891-5.455,10.163-11.424,14.043c-6.835,4.446-12.129,11.658-13.915,15.89c-1.852,3.765-2.835,7.923-2.951,12.476h43.515
	v-14.945h-24.178C355.53,598.293,365.092,591.417,365.092,591.417z"/>
<path fill="#010101" d="M39.812,354.662l314.543,314.551l314.552-314.551L354.355,40.117L39.812,354.662z M354.355,655.219
	c-6.757-6.759-293.793-293.797-300.55-300.557c6.757-6.76,293.793-293.793,300.55-300.554
	c6.76,6.76,293.799,293.794,300.559,300.554C648.154,361.422,361.115,648.46,354.355,655.219z"/>
</svg>
