<?xml version="1.0" encoding="UTF-8" standalone="no"?>
<!-- Created with Inkscape (http://www.inkscape.org/) -->
<svg
   xmlns:dc="http://purl.org/dc/elements/1.1/"
   xmlns:cc="http://creativecommons.org/ns#"
   xmlns:rdf="http://www.w3.org/1999/02/22-rdf-syntax-ns#"
   xmlns:svg="http://www.w3.org/2000/svg"
   xmlns="http://www.w3.org/2000/svg"
   xmlns:sodipodi="http://sodipodi.sourceforge.net/DTD/sodipodi-0.dtd"
   xmlns:inkscape="http://www.inkscape.org/namespaces/inkscape"
   width="104.1"
   height="104.025"
   id="svg2860"
   sodipodi:version="0.32"
   inkscape:version="0.46"
   version="1.0"
   sodipodi:docname="ADR_4.2.svg"
   inkscape:output_extension="org.inkscape.output.svg.inkscape">
  <defs
     id="defs2862">
    <inkscape:perspective
       sodipodi:type="inkscape:persp3d"
       inkscape:vp_x="0 : 526.18109 : 1"
       inkscape:vp_y="0 : 1000 : 0"
       inkscape:vp_z="744.09448 : 526.18109 : 1"
       inkscape:persp3d-origin="372.04724 : 350.78739 : 1"
       id="perspective2868" />
    <inkscape:perspective
       id="perspective3061"
       inkscape:persp3d-origin="372.04724 : 350.78739 : 1"
       inkscape:vp_z="744.09448 : 526.18109 : 1"
       inkscape:vp_y="0 : 1000 : 0"
       inkscape:vp_x="0 : 526.18109 : 1"
       sodipodi:type="inkscape:persp3d" />
    <inkscape:perspective
       id="perspective3057"
       inkscape:persp3d-origin="372.04724 : 350.78739 : 1"
       inkscape:vp_z="744.09448 : 526.18109 : 1"
       inkscape:vp_y="0 : 1000 : 0"
       inkscape:vp_x="0 : 526.18109 : 1"
       sodipodi:type="inkscape:persp3d" />
  </defs>
  <sodipodi:namedview
     id="base"
     pagecolor="#ffffff"
     bordercolor="#666666"
     borderopacity="1.0"
     inkscape:pageopacity="0.0"
     inkscape:pageshadow="2"
     inkscape:zoom="6.9382891"
     inkscape:cx="58.215936"
     inkscape:cy="52.462502"
     inkscape:document-units="px"
     inkscape:current-layer="layer1"
     showgrid="false"
     inkscape:window-width="1280"
     inkscape:window-height="941"
     inkscape:window-x="-4"
     inkscape:window-y="-4" />
  <metadata
     id="metadata2865">
    <rdf:RDF>
      <cc:Work
         rdf:about="">
        <dc:format>image/svg+xml</dc:format>
        <dc:type
           rdf:resource="http://purl.org/dc/dcmitype/StillImage" />
      </cc:Work>
    </rdf:RDF>
  </metadata>
  <g
     inkscape:label="Calque 1"
     inkscape:groupmode="layer"
     id="layer1"
     transform="translate(-402.0237,-665.83489)">
    <g
       id="g107"
       transform="matrix(1.25,0,0,-1.25,405.9237,714.43489)">
      <path
         d="M 0,0 L 0.48,-0.48 L -1.92,-3.12 L -2.4,-2.4 L 0,0 z M 4.08,4.08 L 4.56,3.6 L 2.16,0.96 L 1.68,1.68 L 4.08,4.08 z M 8.16,8.16 L 8.64,7.68 L 6.24,5.04 L 5.76,5.76 L 8.16,8.16 z M 12.24,12.24 L 12.72,11.76 L 10.32,9.12 L 9.84,9.84 L 12.24,12.24 z M 16.32,16.32 L 16.8,15.84 L 14.4,13.2 L 13.92,13.92 L 16.32,16.32 z M 20.4,20.4 L 20.88,19.92 L 18.48,17.28 L 18,17.76 L 20.4,20.4 z M 24.48,24.48 L 24.96,24 L 22.56,21.36 L 22.08,21.84 L 24.48,24.48 z M 28.56,28.56 L 29.04,28.08 L 26.64,25.44 L 26.16,25.92 L 28.56,28.56 z M 32.64,32.64 L 33.12,32.16 L 30.72,29.52 L 30.24,30 L 32.64,32.64 z M 36.72,36.72 L 37.2,36.24 L 34.8,33.6 L 34.32,34.08 L 36.72,36.72 z M 39.12,38.4 L 39.12,37.92 L 38.88,37.68 L 38.4,38.16 L 38.64,38.4 L 39.12,38.4 z M 38.64,38.4 L 38.88,38.88 L 39.12,38.4 L 38.64,38.4 z M 41.28,36.24 L 40.8,35.76 L 38.64,37.92 L 39.12,38.4 L 41.28,36.24 z M 45.36,32.16 L 44.88,31.68 L 42.48,34.08 L 42.96,34.8 L 45.36,32.16 z M 49.44,28.08 L 48.96,27.6 L 46.32,30 L 47.04,30.72 L 49.44,28.08 z M 53.52,24 L 53.04,23.52 L 50.4,25.92 L 51.12,26.64 L 53.52,24 z M 57.6,19.92 L 57.12,19.44 L 54.48,21.84 L 55.2,22.56 L 57.6,19.92 z M 61.68,15.84 L 61.2,15.36 L 58.56,17.76 L 59.28,18.48 L 61.68,15.84 z M 65.76,11.76 L 65.28,11.28 L 62.64,13.68 L 63.36,14.4 L 65.76,11.76 z M 69.84,7.68 L 69.36,7.2 L 66.72,9.84 L 67.44,10.32 L 69.84,7.68 z M 73.92,3.6 L 73.44,3.12 L 70.8,5.76 L 71.28,6.24 L 73.92,3.6 z M 78,-0.48 L 77.52,-0.96 L 74.88,1.68 L 75.36,2.16 L 78,-0.48 z M 79.44,-3.12 L 78.96,-2.4 L 79.44,-1.92 L 80.16,-2.4 L 79.44,-3.12"
         style="fill:#1f1a17;fill-opacity:1;fill-rule:nonzero;stroke:none"
         id="path109" />
    </g>
    <g
       id="g165"
       transform="matrix(1.25,0,0,-1.25,402.3237,718.03489)">
      <path
         d="M 0,0 L 83.04,0 L 41.52,-41.46 L -0.24,0 L 0,0"
         style="fill:#da251d;fill-opacity:1;fill-rule:evenodd;stroke:none"
         id="path167" />
    </g>
    <path
       d="M 444.6237,711.73486 L 465.0237,711.73486 L 465.0237,709.63486 L 444.6237,709.63486 L 444.6237,711.73486 z"
       style="fill:#1f1a17;fill-opacity:1;fill-rule:nonzero;stroke:none"
       id="path169" />
    <path
       d="M 465.0237,711.73486 L 444.6237,711.73486 L 444.6237,709.63486 L 465.0237,709.63486 L 465.0237,711.73486 z"
       style="fill:none;stroke:#1f1a17;stroke-width:0.29999998;stroke-linecap:round;stroke-linejoin:round;stroke-miterlimit:10;stroke-dasharray:none;stroke-opacity:1"
       id="path171" />
    <g
       id="g173"
       transform="matrix(1.25,0,0,-1.25,458.1237,689.83489)">
      <path
         d="M 0,0 L 0.72,0.24 L 1.2,0.96 L 1.92,2.64 L 2.16,4.32 L 2.16,5.04 L 2.88,3.12 L 3.36,1.2 L 3.12,-0.72 L 2.4,-2.64 L 3.84,-1.92 L 4.56,-0.72 L 5.04,0 L 5.28,0.48 C 6.487,-3.113 6.16,-3.901 4.08,-6.96 L 5.76,-6.48 L 6.72,-5.76 L 6.96,-5.04 L 6.96,-4.56 L 6.72,-7.92 L 6,-10.32 L 4.8,-12.24 L 3.36,-13.2 L 1.92,-13.92 L 0.48,-14.16 L -0.72,-14.16 L -0.24,-13.92 L 0.96,-13.2 L 2.4,-11.76 L 3.6,-9.6 L 2.4,-10.32 L 1.2,-10.56 L 0.24,-10.56 L 0.96,-10.08 L 1.68,-9.12 L 2.16,-7.68 L 2.16,-5.52 L 1.68,-6.72 L 0.96,-7.2 L -0.72,-8.16 L -0.48,-5.52 L -0.96,-3.6 L -1.92,-2.16 L -2.88,-1.2 L -2.64,-2.4 L -3.36,-4.56 L -4.08,-6 L -4.08,-6.96 L -3.84,-8.4 L -4.8,-7.92 L -5.52,-7.44 L -6,-6.72 L -6.48,-5.52 L -6.48,-7.68 L -6.24,-8.88 L -5.52,-9.6 L -4.8,-10.56 L -6,-10.32 L -6.72,-10.32 L -7.44,-10.08 L -8.4,-9.36 L -7.44,-11.52 L -6,-13.2 L -4.56,-13.92 L -2.88,-14.16 L -6.48,-13.92 L -8.88,-12.96 L -10.56,-11.76 L -11.52,-10.08 L -12.48,-6.72 L -13.2,-3.6 L -12.24,-4.32 L -11.52,-5.28 L -10.56,-6 L -8.88,-6.24 L -9.84,-4.8 L -10.32,-3.6 L -10.56,-1.68 L -10.32,-0.24 L -10.56,1.68 L -9.84,0.72 L -9.36,0 L -8.64,-0.96 L -7.44,-1.68 L -7.92,-0.24 L -7.92,0.96 L -7.68,2.88 L -7.44,4.08 L -7.92,5.52 C -4.391,4.056 -6.752,3.315 -4.8,0.48 C -2.687,4.016 -4.876,6.736 -3.12,10.56 L -2.4,8.16 L 0,2.88 L 0.24,1.44 L 0,0"
         style="fill:#1f1a17;fill-opacity:1;fill-rule:evenodd;stroke:none"
         id="path175" />
    </g>
    <text
       transform="scale(0.9975897,1.0024161)"
       id="text177"
       x="451.11102"
       y="749.82281"
       style="font-size:14.96384525px">
      <tspan
         style="font-size:12.56115055px;font-variant:normal;font-weight:bold;font-stretch:normal;writing-mode:lr-tb;fill:#1f1a17;fill-opacity:1;fill-rule:nonzero;stroke:none;font-family:Arial;-inkscape-font-specification:Arial-BoldMT"
         x="451.11102"
         y="749.82281"
         id="tspan179">4</tspan>
    </text>
    <g
       transform="translate(10155.929,99.58255)"
       id="g3059"
       inkscape:label="Calque 1">
      <path
         sodipodi:nodetypes="ccccc"
         clip-path="none"
         d="M -9746.9675,618.22734 L -9701.7425,663.22734 L -9656.7425,618.22734 L -9701.7425,573.30234 L -9746.9675,618.22734 z"
         style="fill:none;stroke:#1f1a17;stroke-width:0.89874995;stroke-linecap:round;stroke-linejoin:round;stroke-miterlimit:10;stroke-dasharray:none;stroke-opacity:1"
         id="path273" />
    </g>
  </g>
</svg>
